<?xml version="1.0" encoding="UTF-8"?><svg id="Layer_1" xmlns="http://www.w3.org/2000/svg" viewBox="0 0 405.96 251.73"><defs><style>.cls-1{stroke:#ec1c24;}.cls-1,.cls-2,.cls-3{stroke-miterlimit:10;}.cls-1,.cls-4{fill:#c0272d;}.cls-2{stroke:#000;}.cls-2,.cls-3,.cls-5{fill:#1a1a1a;}.cls-3{stroke:#333;}.cls-6{fill:#faaf3b;}.cls-6,.cls-5,.cls-7,.cls-4{stroke-width:0px;}.cls-7{fill:#cbcbcb;}</style></defs><ellipse class="cls-2" cx="73.19" cy="151.03" rx="72.69" ry="74.43"/><ellipse class="cls-5" cx="85.97" cy="84.03" rx="21.49" ry="22.01" transform="translate(-25.56 39.18) rotate(-22.44)"/><path class="cls-3" d="m65.84,77.53c-.45,1.47-2.32,8.2,1.36,14.61,0,0,2.65,4.62,7.53,6.93,11.56,7.16,26.7,3.61,32.96-13.35"/><path class="cls-3" d="m66.03,77.47c-.05.44,5.26,12.23,13.02,13.89,6.08,1.3,9.24,2,11.72,1.3,6.94-1.96,15.86-5.34,16.93-6.94"/><path class="cls-7" d="m94.68,69.6c-1.09,15.3-6.63,11.07-9.7,10.06-3.07-1.01-4.28,1.35-1.43-13.72,3.68-19.42,26.89-34.79,29.53-28.66,3.08,7.15-17.47,19.3-18.4,32.32Z"/><rect class="cls-6" x="90.62" y="18.63" width="32.84" height="34.62" rx="6.59" ry="6.59"/><path class="cls-6" d="m101.79,6.28h0c-7.95-18.27-2.51,9.02-2.51,10.23v32.88c0,1.21,1.13,2.19,2.51,2.19h0c1.38,0,2.51-.99,2.51-2.19V16.51c-.34-.92-1.75-9.71-2.51-10.23Z"/><path class="cls-6" d="m109.13,71.58h0c8.74,10.76,2.76-5.31,2.76-6.02v-19.36c0-.71-1.24-1.29-2.76-1.29h0c-1.52,0-2.76.58-2.76,1.29v19.36c.38.54,1.93,5.72,2.76,6.02Z"/><path class="cls-6" d="m135.23,22.98h0c-.57-1.35-13.37,2.07-14.06,2.29l-35.45,11.38c-.69.22-10.06,5.04-9.49,6.39h0c.57,1.35,10.88-1.26,11.56-1.48l35.45-11.38c.69-.22,12.56-5.84,11.99-7.19Z"/><path class="cls-6" d="m140.82,9.73h0c-1.03-1.12-11.91,5.7-12.48,6.1l-29.4,20.7c-.57.4-7.68,7.59-6.65,8.71h0c1.03,1.12,9.84-4.24,10.41-4.64l29.4-20.7c.57-.4,9.75-9.05,8.72-10.16Z"/><path class="cls-6" d="m123.03,21.67h0c-1.03-1.12-11.91,5.7-12.48,6.1l-29.4,20.7c-.57.4-7.68,7.59-6.65,8.71h0c1.03,1.12,9.84-4.24,10.41-4.64l29.4-20.7c.57-.4,9.75-9.05,8.72-10.16Z"/><path class="cls-6" d="m123.7,51.67h0c1.32-.86-6.1-10.59-6.54-11.1l-22.65-26.38c-.44-.51-8.42-6.97-9.73-6.11h0c-1.32.86,4.5,8.73,4.94,9.24l22.65,26.38c.44.51,10.01,8.83,11.33,7.97Z"/><path class="cls-6" d="m98.96,65.21h0c1.84.52,7.28-11.68,7.53-12.36l12.99-35.14c.25-.68,1.75-11.25-.09-11.77h0c-1.84-.52-6.36,9.21-6.61,9.89l-12.99,35.14c-.25.68-2.67,13.73-.83,14.25Z"/><path class="cls-6" d="m140.09,36.47h0c.49-1.37-12.03-5.49-12.73-5.68l-36.03-9.89c-.7-.19-11.49-1.38-11.99,0h0c-.49,1.37,9.5,4.8,10.19,4.99l36.03,9.89c.7.19,14.03,2.07,14.53.7Z"/><path class="cls-6" d="m131.85,38.34h0c-.54-1.36-7.86.16-8.25.28l-19.98,6.06c-.39.12-5.41,3.45-4.87,4.81h0c.54,1.36,6.45.26,6.84.15l19.98-6.06c.39-.12,6.82-3.87,6.27-5.24Z"/><path class="cls-6" d="m124.74,59.44h0c1.21-1-4.45-7.22-4.79-7.54l-17.56-16.33c-.34-.32-6.75-3.77-7.97-2.77h0c-1.21,1,3.21,6.07,3.55,6.39l17.56,16.33c.34.32,7.99,4.92,9.2,3.92Z"/><path class="cls-6" d="m94.1,58.86h0c.67.21,2.86-4.31,2.96-4.57l5.33-13.04c.1-.25.82-4.2.15-4.4h0c-.67-.21-2.48,3.4-2.58,3.65l-5.33,13.04c-.1.25-1.2,5.11-.53,5.32Z"/><path class="cls-6" d="m108.01,38.78h0c-.66-.72-5.43,2.1-5.67,2.27l-12.6,8.88c-.24.17-3.03,3.54-2.37,4.26h0c.66.72,4.54-1.47,4.78-1.64l12.6-8.88c.24-.17,3.92-4.16,3.26-4.88Z"/><path class="cls-6" d="m117.95,22.1h0c-.41-1.39-10.3.18-10.83.3l-27.39,6.21c-.53.12-7.81,3.52-7.39,4.91h0c.41,1.39,8.37.26,8.9.14l27.39-6.21c.53-.12,9.73-3.96,9.32-5.35Z"/><path class="cls-6" d="m111.4,33.57h0c-.03-.55-7-.53-7.38-.51l-19.67.78c-.38.02-5.92.89-5.89,1.44h0c.03.55,5.62.58,6,.57l19.67-.78c.38-.02,7.31-.95,7.28-1.5Z"/><path class="cls-6" d="m107.7,3.22h0c-1.65,0-2.39,11.66-2.39,12.3v32.96c0,.64,1.95,9.98,3.59,9.98h0c1.65,0,2.39-9.34,2.39-9.98V15.52c0-.64-1.95-12.3-3.59-12.3Z"/><path class="cls-6" d="m133.62,53.4h0c1.01-1.13-9.06-8.83-9.64-9.22l-29.77-20.28c-.58-.39-10.21-4.8-11.23-3.67h0c-1.01,1.13,6.97,7.4,7.54,7.79l29.77,20.28c.58.39,12.31,6.23,13.32,5.1Z"/><path class="cls-4" d="m232.16,163.69c-47.82,70.27-36.76,67.73-22.34,79.4,14.57,11.79,16.15,23.17,65.35-50.32,46.72-69.79,81.75-118.33,59.22-133.95-23.82-16.51-56.37,37.48-102.23,104.88Z"/><path class="cls-1" d="m303,67.93c-8.36,16.32-7.92,30.13,13.35,37.8,7.18,2.59,15.82-5.59,20.46-15.04"/><path class="cls-7" d="m332.57,76.64c-9.49,16.08-13.27,8.4-16.09,5.6s-5.42-.89,5.88-15.75c14.56-19.15,48.34-23.06,47.91-14.93-.5,9.5-29.62,11.39-37.7,25.08Z"/><rect class="cls-6" x="353.94" y="33.4" width="30.2" height="33.36" rx="6.06" ry="6.06" transform="translate(28.78 -101.32) rotate(16.26)"/><path class="cls-6" d="m372.41,21.28h0c-2.1-18.94-4.65,7.7-4.98,8.82l-8.87,30.41c-.33,1.12.41,2.32,1.63,2.67h0c1.22.36,2.48-.27,2.81-1.38l8.87-30.41c-.06-.94,1.07-9.44.54-10.11Z"/><path class="cls-6" d="m361.27,83.57h0c4.81,12.2,3.87-4.21,4.06-4.86l5.22-17.91c.19-.66-.75-1.51-2.09-1.9h0c-1.34-.39-2.59-.17-2.78.48l-5.22,17.91c.19.6.16,5.79.81,6.28Z"/><path class="cls-6" d="m397.43,45.34h0c-.14-1.39-12.36-1.53-13.03-1.5l-34.37,1.4c-.67.03-10.24,2.07-10.11,3.46h0c.14,1.39,9.94,1.63,10.61,1.6l34.37-1.4c.67-.03,12.66-2.17,12.53-3.56Z"/><path class="cls-6" d="m405.93,34.53h0c-.61-1.3-12.05,2.21-12.66,2.43l-31.54,11.58c-.61.22-8.83,5.04-8.22,6.34h0c.61,1.3,9.83-1.39,10.44-1.62l31.54-11.58c.61-.22,11.05-5.86,10.44-7.16Z"/><path class="cls-6" d="m387.01,40.99h0c-.61-1.3-12.05,2.21-12.66,2.43l-31.54,11.58c-.61.22-8.83,5.04-8.22,6.34h0c.61,1.3,9.83-1.39,10.44-1.62l31.54-11.58c.61-.22,11.05-5.86,10.44-7.16Z"/><path class="cls-6" d="m379.51,68.91h0c1.4-.46-2.53-11.36-2.78-11.95l-12.88-30.23c-.25-.59-5.55-8.61-6.94-8.16h0c-1.4.46,1.62,9.23,1.87,9.82l12.88,30.23c.25.59,6.46,10.74,7.85,10.29Z"/><path class="cls-6" d="m354.01,75.06h0c1.49.95,9.58-8.93,9.98-9.5l20.95-29.16c.41-.56,4.59-9.96,3.1-10.91h0c-1.49-.95-8.1,6.88-8.51,7.44l-20.95,29.16c-.41.56-6.06,12.01-4.57,12.97Z"/><path class="cls-6" d="m398.08,59.07h0c.81-1.14-9.14-8.18-9.71-8.54l-29.14-18.42c-.56-.36-9.78-4.23-10.58-3.09h0c-.81,1.14,7.09,6.88,7.65,7.24l29.14,18.42c.56.36,11.83,5.53,12.64,4.39Z"/><path class="cls-6" d="m390.3,58.68h0c-.11-1.4-6.98-1.87-7.36-1.86l-19.27.46c-.37,0-5.7,1.8-5.59,3.2h0c.11,1.4,5.63,1.91,6,1.9l19.27-.46c.37,0,7.06-1.83,6.95-3.23Z"/><path class="cls-6" d="m378.33,76.37h0c1.34-.61-1.98-7.83-2.19-8.21l-11.1-19.62c-.21-.38-4.95-5.22-6.29-4.62h0c-1.34.61,1.2,6.45,1.41,6.83l11.1,19.62c.21.38,5.73,6.61,7.07,6Z"/><path class="cls-6" d="m351.44,67.94h0c.53.36,3.69-3.26,3.84-3.46l8.22-10.7c.16-.21,1.86-3.67,1.32-4.03h0c-.53-.36-3.11,2.5-3.27,2.71l-8.22,10.7c-.16.21-2.44,4.42-1.9,4.79Z"/><path class="cls-6" d="m369.13,52.95h0c-.39-.84-5.36.54-5.62.64l-13.52,4.97c-.26.1-3.63,2.49-3.24,3.33h0c.39.84,4.4-.19,4.67-.29l13.52-4.97c.26-.1,4.58-2.84,4.19-3.68Z"/><path class="cls-6" d="m382.41,40.08h0c0-1.39-9.14-2.49-9.64-2.51l-25.86-1.31c-.5-.03-7.84,1.25-7.85,2.64h0c0,1.39,7.32,2.4,7.82,2.42l25.86,1.31c.5.03,9.66-1.16,9.67-2.55Z"/><path class="cls-6" d="m373.53,49h0c.12-.52-6.04-2.29-6.38-2.38l-17.58-4.34c-.34-.08-5.47-.7-5.59-.18h0c-.12.52,4.8,1.99,5.14,2.07l17.58,4.34c.34.08,6.71,1.01,6.83.49Z"/><path class="cls-6" d="m378.45,19.98h0c-1.45-.42-5.26,10.17-5.43,10.76l-8.89,30.49c-.17.59-.97,9.73.48,10.16h0c1.45.42,4.63-8.03,4.81-8.62l8.89-30.49c.17-.59,1.6-11.88.15-12.3Z"/><path class="cls-6" d="m387.8,73.07h0c1.2-.79-5.62-10.5-6.02-11.01l-20.81-26.43c-.4-.51-7.72-7.07-8.92-6.29h0c-1.2.79,4.15,8.64,4.56,9.15l20.81,26.43c.4.51,9.19,8.93,10.39,8.15Z"/></svg>