<?xml version="1.0" encoding="UTF-8"?><svg id="Layer_1" xmlns="http://www.w3.org/2000/svg" viewBox="0 0 292 332.23"><defs><style>.cls-1{stroke:#ec1c24;stroke-miterlimit:10;}.cls-1,.cls-2{fill:#c0272d;}.cls-3{fill:#faaf3b;}.cls-3,.cls-4,.cls-2{stroke-width:0px;}.cls-4{fill:#cbcbcb;}</style></defs><path class="cls-2" d="m48.61,208.93c-66.96,98.41-51.49,94.85-31.29,111.2,20.4,16.51,22.62,32.45,91.52-70.48,65.43-97.75,114.49-165.72,82.93-187.6-33.36-23.12-78.94,52.49-143.17,146.88Z"/><path class="cls-1" d="m147.82,74.83c-11.71,22.85-11.09,42.2,18.69,52.93,10.05,3.62,22.16-7.83,28.65-21.06"/><path class="cls-4" d="m189.23,87.03c-13.29,22.53-18.58,11.77-22.53,7.84-3.95-3.92-7.6-1.25,8.23-22.06,20.4-26.81,67.7-32.3,67.09-20.91-.7,13.3-41.48,15.95-52.79,35.12Z"/><rect class="cls-3" x="219.16" y="26.46" width="42.29" height="46.72" rx="12" ry="12" transform="translate(23.56 -65.28) rotate(16.26)"/><path class="cls-3" d="m245.02,9.5h0c-2.93-26.53-6.51,10.78-6.97,12.35l-12.42,42.59c-.46,1.56.57,3.25,2.28,3.75h0c1.71.5,3.48-.37,3.93-1.93l12.42-42.59c-.08-1.32,1.5-13.22.76-14.16Z"/><path class="cls-3" d="m229.42,96.74h0c6.74,17.09,5.42-5.89,5.69-6.81l7.32-25.09c.27-.92-1.05-2.12-2.92-2.67h0c-1.88-.55-3.63-.24-3.9.68l-7.32,25.09c.26.84.22,8.11,1.14,8.8Z"/><path class="cls-3" d="m280.06,43.19h0c-.19-1.95-17.31-2.15-18.25-2.11l-48.13,1.96c-.93.04-14.35,2.9-14.15,4.85h0c.19,1.95,13.92,2.28,14.86,2.25l48.13-1.96c.93-.04,17.74-3.04,17.54-4.99Z"/><path class="cls-3" d="m291.97,28.05h0c-.86-1.82-16.87,3.09-17.73,3.4l-44.17,16.22c-.86.31-12.36,7.06-11.51,8.88h0c.86,1.82,13.76-1.95,14.62-2.26l44.17-16.22c.86-.31,15.47-8.2,14.62-10.03Z"/><path class="cls-3" d="m265.47,37.1h0c-.86-1.82-16.87,3.09-17.73,3.4l-44.17,16.22c-.86.31-12.36,7.06-11.51,8.88h0c.86,1.82,13.76-1.95,14.62-2.26l44.17-16.22c.86-.31,15.47-8.2,14.62-10.03Z"/><path class="cls-3" d="m254.97,76.2h0c1.95-.64-3.54-15.91-3.89-16.73l-18.04-42.34c-.35-.82-7.77-12.06-9.73-11.42h0c-1.95.64,2.27,12.93,2.62,13.75l18.04,42.34c.35.82,9.04,15.05,11,14.4Z"/><path class="cls-3" d="m219.26,84.82h0c2.08,1.34,13.41-12.51,13.98-13.3l29.33-40.84c.57-.79,6.42-13.95,4.34-15.28h0c-2.08-1.34-11.34,9.63-11.91,10.42l-29.33,40.84c-.57.79-8.49,16.82-6.4,18.16Z"/><path class="cls-3" d="m280.97,62.42h0c1.13-1.6-12.8-11.45-13.59-11.95l-40.82-25.8c-.79-.5-13.69-5.93-14.82-4.33h0c-1.13,1.6,9.93,9.64,10.72,10.14l40.82,25.8c.79.5,16.57,7.74,17.7,6.15Z"/><path class="cls-3" d="m270.08,61.88h0c-.16-1.96-9.78-2.62-10.3-2.61l-26.99.65c-.52.01-7.99,2.51-7.83,4.48h0c.16,1.96,7.88,2.67,8.4,2.66l26.99-.65c.52-.01,9.89-2.56,9.73-4.52Z"/><path class="cls-3" d="m253.31,86.64h0c1.88-.85-2.77-10.96-3.07-11.49l-15.54-27.48c-.3-.53-6.93-7.32-8.8-6.47h0c-1.88.85,1.67,9.03,1.98,9.56l15.54,27.48c.3.53,8.02,9.25,9.9,8.4Z"/><path class="cls-3" d="m215.65,74.84h0c.75.51,5.16-4.56,5.38-4.85l11.51-14.98c.22-.29,2.6-5.14,1.85-5.65h0c-.75-.51-4.35,3.5-4.57,3.79l-11.51,14.98c-.22.29-3.41,6.19-2.67,6.7Z"/><path class="cls-3" d="m240.43,53.84h0c-.55-1.17-7.5.76-7.87.89l-18.94,6.95c-.37.13-5.08,3.49-4.53,4.66h0c.55,1.17,6.17-.27,6.53-.4l18.94-6.95c.37-.13,6.42-3.98,5.87-5.15Z"/><path class="cls-3" d="m259.03,35.82h0c.01-1.95-12.8-3.48-13.5-3.52l-36.22-1.83c-.7-.04-10.98,1.75-11,3.7h0c-.01,1.95,10.25,3.36,10.95,3.39l36.22,1.83c.7.04,13.53-1.62,13.55-3.57Z"/><path class="cls-3" d="m246.59,48.32h0c.17-.73-8.46-3.21-8.94-3.33l-24.61-6.08c-.48-.12-7.66-.98-7.83-.25h0c-.17.73,6.72,2.78,7.2,2.9l24.61,6.08c.48.12,9.39,1.41,9.57.68Z"/><path class="cls-3" d="m253.49,7.67h0c-2.04-.59-7.37,14.25-7.61,15.07l-12.45,42.7c-.24.83-1.37,13.63.67,14.23h0c2.04.59,6.49-11.24,6.73-12.07l12.45-42.7c.24-.83,2.24-16.64.21-17.23Z"/><path class="cls-3" d="m266.57,82.02h0c1.68-1.1-7.87-14.7-8.44-15.42l-29.15-37.01c-.56-.72-10.81-9.91-12.49-8.8h0c-1.68,1.1,5.82,12.09,6.38,12.81l29.15,37.01c.56.72,12.87,12.51,14.55,11.41Z"/></svg>