<?xml version="1.0" encoding="UTF-8"?><svg id="Layer_1" xmlns="http://www.w3.org/2000/svg" viewBox="0 0 204.61 316.25"><defs><style>.cls-1{stroke:#000;}.cls-1,.cls-2{stroke-miterlimit:10;}.cls-1,.cls-2,.cls-3{fill:#1a1a1a;}.cls-2{stroke:#333;}.cls-4,.cls-5,.cls-3,.cls-6{stroke-width:0px;}.cls-5{fill:#faaf3b;}.cls-6{fill:#cbcbcb;}</style></defs><ellipse class="cls-1" cx="102.31" cy="211.52" rx="101.81" ry="104.24"/><ellipse class="cls-3" cx="120.2" cy="117.68" rx="30.1" ry="30.82" transform="translate(-35.82 54.79) rotate(-22.44)"/><path class="cls-2" d="m92.01,108.58c-.62,2.06-3.25,11.48,1.91,20.46,0,0,3.71,6.47,10.55,9.7,16.18,10.02,37.39,5.06,46.16-18.7"/><path class="cls-2" d="m92.28,108.49c-.06.62,7.37,17.12,18.23,19.45,8.51,1.82,12.94,2.8,16.41,1.82,9.72-2.74,22.21-7.48,23.7-9.72"/><path class="cls-6" d="m132.4,97.47c-1.52,21.43-9.29,15.5-13.59,14.08s-5.99,1.9-2-19.21c5.15-27.2,37.66-48.72,41.36-40.14,4.32,10.01-24.47,27.03-25.77,45.27Z"/><rect class="cls-5" x="126.72" y="26.09" width="45.99" height="48.49" rx="12" ry="12"/><path class="cls-5" d="m142.36,8.79h0c-11.14-25.58-3.52,12.64-3.52,14.33v46.05c0,1.69,1.58,3.07,3.52,3.07h0c1.93,0,3.52-1.38,3.52-3.07V23.12c-.48-1.29-2.46-13.6-3.52-14.33Z"/><path class="cls-5" d="m152.63,100.24h0c12.24,15.07,3.87-7.44,3.87-8.44v-27.12c0-.99-1.74-1.81-3.87-1.81h0c-2.13,0-3.87.81-3.87,1.81v27.12c.53.76,2.7,8.01,3.87,8.44Z"/><path class="cls-5" d="m189.19,32.18h0c-.8-1.89-18.73,2.89-19.69,3.2l-49.65,15.94c-.96.31-14.09,7.06-13.3,8.95h0c.8,1.89,15.23-1.77,16.19-2.08l49.65-15.94c.96-.31,17.59-8.18,16.79-10.07Z"/><path class="cls-5" d="m197.01,13.63h0c-1.45-1.57-16.67,7.98-17.47,8.54l-41.17,28.99c-.8.56-10.76,10.63-9.31,12.19h0c1.45,1.57,13.77-5.94,14.57-6.5l41.17-28.99c.8-.56,13.65-12.67,12.21-14.24Z"/><path class="cls-5" d="m172.1,30.35h0c-1.45-1.57-16.67,7.98-17.47,8.54l-41.17,28.99c-.8.56-10.76,10.63-9.31,12.19h0c1.45,1.57,13.77-5.94,14.57-6.5l41.17-28.99c.8-.56,13.65-12.67,12.21-14.24Z"/><path class="cls-5" d="m173.04,72.36h0c1.85-1.21-8.54-14.83-9.15-15.54l-31.72-36.94c-.61-.72-11.79-9.76-13.63-8.56h0c-1.85,1.21,6.31,12.23,6.92,12.94l31.72,36.94c.61.72,14.02,12.36,15.86,11.16Z"/><path class="cls-5" d="m138.39,91.32h0c2.58.73,10.19-16.36,10.54-17.31l18.19-49.21c.35-.95,2.46-15.76-.12-16.49h0c-2.58-.73-8.91,12.89-9.26,13.85l-18.19,49.21c-.35.95-3.74,19.23-1.16,19.95Z"/><path class="cls-5" d="m196,51.08h0c.69-1.92-16.85-7.69-17.83-7.96l-50.46-13.85c-.98-.27-16.1-1.93-16.79,0h0c-.69,1.92,13.3,6.72,14.27,6.99l50.46,13.85c.98.27,19.65,2.9,20.34.98Z"/><path class="cls-5" d="m184.46,53.7h0c-.76-1.91-11.01.23-11.55.39l-27.98,8.49c-.54.16-7.57,4.83-6.81,6.73h0c.76,1.91,9.04.37,9.58.21l27.98-8.49c.54-.16,9.55-5.42,8.78-7.33Z"/><path class="cls-5" d="m174.5,83.25h0c1.7-1.39-6.23-10.12-6.7-10.56l-24.59-22.86c-.48-.44-9.46-5.28-11.16-3.88h0c-1.7,1.39,4.5,8.51,4.97,8.95l24.59,22.86c.48.44,11.19,6.89,12.89,5.49Z"/><path class="cls-5" d="m131.59,82.43h0c.94.29,4-6.04,4.14-6.4l7.46-18.27c.14-.35,1.15-5.88.22-6.17h0c-.94-.29-3.48,4.76-3.62,5.11l-7.46,18.27c-.14.35-1.68,7.16-.74,7.45Z"/><path class="cls-5" d="m151.06,54.31h0c-.93-1.01-7.6,2.94-7.94,3.18l-17.65,12.43c-.34.24-4.25,4.95-3.32,5.96h0c.93,1.01,6.36-2.06,6.7-2.3l17.65-12.43c.34-.24,5.49-5.83,4.56-6.83Z"/><path class="cls-5" d="m164.99,30.95h0c-.58-1.95-14.42.25-15.16.41l-38.36,8.7c-.74.17-10.93,4.94-10.35,6.88h0c.58,1.95,11.72.37,12.46.2l38.36-8.7c.74-.17,13.63-5.55,13.05-7.5Z"/><path class="cls-5" d="m155.81,47.01h0c-.04-.78-9.81-.74-10.34-.72l-27.55,1.1c-.53.02-8.29,1.25-8.25,2.02h0c.04.78,7.87.82,8.4.8l27.55-1.1c.53-.02,10.23-1.33,10.19-2.1Z"/><path class="cls-5" d="m150.64,4.51h0c-2.31,0-3.35,16.33-3.35,17.23v46.16c0,.89,2.72,13.98,5.03,13.98h0c2.31,0,3.35-13.08,3.35-13.98V21.74c0-.89-2.72-17.23-5.03-17.23Z"/><path class="cls-5" d="m186.93,74.79h0c1.42-1.59-12.69-12.36-13.5-12.91l-41.7-28.41c-.81-.55-14.3-6.73-15.72-5.14h0c-1.42,1.59,9.75,10.36,10.56,10.91l41.7,28.41c.81.55,17.24,8.73,18.66,7.14Z"/><path class="cls-4" d="m189.33,190.41c7.9,28.81,1.71,43.94-10.86,47.38-12.56,3.44,3.29-13.47-4.61-42.28-7.9-28.81-26.45-31.97-13.89-35.42,12.56-3.44,21.46,1.51,29.35,30.31Z"/></svg>