<?xml version="1.0" encoding="UTF-8"?><svg id="Layer_1" xmlns="http://www.w3.org/2000/svg" viewBox="0 0 433.8 432.41"><defs><style>.cls-1{fill:#ff0;opacity:.8;}.cls-1,.cls-2{stroke-width:0px;}.cls-2{fill:#fbb03b;opacity:.3;}</style></defs><circle class="cls-1" cx="217.13" cy="214.35" r="77.46"/><ellipse class="cls-1" cx="219.67" cy="64.05" rx="11.1" ry="64.05"/><ellipse class="cls-1" cx="219.67" cy="368.36" rx="11.1" ry="64.05"/><ellipse class="cls-1" cx="369.74" cy="214.59" rx="64.05" ry="11.1"/><ellipse class="cls-1" cx="64.05" cy="214.59" rx="64.05" ry="11.1"/><ellipse class="cls-1" cx="298.75" cy="90.88" rx="64.05" ry="11.1" transform="translate(59.22 291.21) rotate(-56.83)"/><ellipse class="cls-1" cx="138.22" cy="346.36" rx="64.05" ry="11.1" transform="translate(-227.32 272.53) rotate(-56.83)"/><ellipse class="cls-1" cx="353.46" cy="148.05" rx="64.05" ry="11.1" transform="translate(-28.8 175.05) rotate(-26.77)"/><ellipse class="cls-1" cx="78.29" cy="286.79" rx="64.05" ry="11.1" transform="translate(-120.77 65.99) rotate(-26.77)"/><ellipse class="cls-1" cx="298.89" cy="346.45" rx="11.1" ry="64.05" transform="translate(-140.85 220.01) rotate(-33.17)"/><ellipse class="cls-1" cx="353.46" cy="289.1" rx="11.1" ry="64.05" transform="translate(-63.85 474.49) rotate(-63.23)"/><ellipse class="cls-1" cx="80.61" cy="142.5" rx="11.1" ry="64.05" transform="translate(-82.93 150.29) rotate(-63.23)"/><ellipse class="cls-1" cx="128.24" cy="82.38" rx="11.1" ry="64.05" transform="translate(-24.18 83.6) rotate(-33.17)"/><ellipse class="cls-2" cx="219.51" cy="337.49" rx="9.2" ry="31.67"/><ellipse class="cls-2" cx="219.84" cy="95.37" rx="9.2" ry="31.67"/><ellipse class="cls-2" cx="337.93" cy="214.7" rx="31.67" ry="9.2"/><ellipse class="cls-2" cx="96.79" cy="214.7" rx="31.67" ry="9.2"/><ellipse class="cls-2" cx="281.99" cy="116.51" rx="31.67" ry="9.2" transform="translate(30.18 288.79) rotate(-56.83)"/><ellipse class="cls-2" cx="155.21" cy="321.59" rx="31.67" ry="9.2" transform="translate(-198.9 275.54) rotate(-56.83)"/><ellipse class="cls-2" cx="280.75" cy="319.11" rx="9.2" ry="31.67" transform="translate(-128.85 205.62) rotate(-33.17)"/><ellipse class="cls-2" cx="145.27" cy="109.05" rx="9.2" ry="31.67" transform="translate(-35.99 97.26) rotate(-33.17)"/><ellipse class="cls-2" cx="324.25" cy="274.36" rx="9.2" ry="31.67" transform="translate(-66.74 440.31) rotate(-63.23)"/><ellipse class="cls-2" cx="107.98" cy="156.28" rx="9.2" ry="31.67" transform="translate(-80.19 182.3) rotate(-63.23)"/><ellipse class="cls-2" cx="107.53" cy="272.2" rx="31.67" ry="9.2" transform="translate(-111.07 77.6) rotate(-26.77)"/><ellipse class="cls-2" cx="325.05" cy="162.82" rx="31.67" ry="9.2" transform="translate(-38.5 163.84) rotate(-26.77)"/></svg>