<?xml version="1.0" encoding="UTF-8"?><svg id="Layer_1" xmlns="http://www.w3.org/2000/svg" viewBox="0 0 753.55 270.73"><defs><style>.cls-1{stroke:#333;}.cls-1,.cls-2{stroke-miterlimit:10;stroke-width:5px;}.cls-1,.cls-3{fill:#ffe8fa;}.cls-2{stroke:#ffaaea;}.cls-2,.cls-4{fill:#ffbff6;}.cls-5,.cls-6,.cls-7,.cls-8,.cls-9,.cls-10,.cls-3,.cls-11,.cls-12,.cls-13,.cls-4,.cls-14{stroke-width:0px;}.cls-6{fill:#f4b200;}.cls-7{fill:#c5b097;}.cls-8{fill:#bf272d;}.cls-9{fill:#333;}.cls-10{fill:#fff;}.cls-11{fill:#e4e4e4;}.cls-12{fill:#ffd28a;}.cls-13{fill:#ffaaea;}.cls-14{fill:#f0f0f0;}</style></defs><path class="cls-7" d="m96.05,45.75c-8.91,7.62-19.71,24.84-33.32,33.48-2.56,1.62,7.95-4.52,0,0-5.39,3.07-14.97-39.66-15.95-50.55-1.25-13.95,56.32,11.03,49.26,17.07Z"/><ellipse class="cls-10" cx="213.03" cy="87.57" rx="37.89" ry="24.82" transform="translate(5.97 188.46) rotate(-48.32)"/><ellipse class="cls-10" cx="31.92" cy="87.7" rx="25.01" ry="37.6" transform="translate(-52.26 47.41) rotate(-44.43)"/><path class="cls-7" d="m185.52,77.09c-9.41-6.76-27.16-11.93-39.15-23.38-2.25-2.15,6.58,6.88,0,0-4.47-4.67,25.87-31.11,34.16-36.27,10.61-6.61,12.44,65,4.99,59.65Z"/><path class="cls-10" d="m215.34,154.36c0,59.05-40.76,72.52-91.41,72.52s-91.98-13.47-91.98-72.52S73.3,35.29,123.94,35.29s91.41,60.01,91.41,119.07Z"/><path class="cls-9" d="m110.52,77.8c0,13.6-10.2-5.73-23.14-5.73s-32.4,21.02-32.4,7.42,33.92-39.13,46.86-39.13,8.68,23.84,8.68,37.44Z"/><path class="cls-3" d="m10.19,71.66c3.46-7.08,19.87-4.26,27.03.5,7.16,4.76,10.17,14.35,6.71,21.43-3.46,7.08-12.07,8.96-19.23,4.2-7.16-4.76-17.97-19.06-14.51-26.14Z"/><path class="cls-3" d="m233.74,68.02c4.25,6.47-4.37,23-10.92,28.84-6.55,5.84-15.3,5.33-19.54-1.14s-2.38-16.45,4.17-22.29c6.55-5.84,22.05-11.88,26.3-5.41Z"/><path class="cls-9" d="m70.3,123.67c6.24,8.25,12.28,13.93,13.47,12.7s-2.89-8.92-9.14-17.16-8.19-8.53-9.38-7.29-1.2,3.51,5.05,11.76Z"/><path class="cls-9" d="m80.22,119.41c5.31,7.01,10.58,11.69,11.78,10.46,1.2-1.23-2.13-7.91-7.44-14.92s-7.1-7.1-8.3-5.86c-1.2,1.23-1.34,3.32,3.96,10.33Z"/><ellipse class="cls-9" cx="90.95" cy="136.38" rx="15.04" ry="17.54"/><path class="cls-9" d="m174.08,123.67c-6.24,8.25-12.28,13.93-13.47,12.7s2.89-8.92,9.14-17.16c6.24-8.25,8.19-8.53,9.38-7.29s1.2,3.51-5.05,11.76Z"/><path class="cls-9" d="m164.16,119.41c-5.31,7.01-10.58,11.69-11.78,10.46-1.2-1.23,2.13-7.91,7.44-14.92,5.31-7.01,7.1-7.1,8.3-5.86s1.34,3.32-3.96,10.33Z"/><ellipse class="cls-9" cx="153.43" cy="136.38" rx="15.04" ry="17.54"/><path class="cls-3" d="m230.96,197.53c-1.91,35.14-47.76,73.19-107.03,73.19S18.13,232.68,16.33,197.53c-4.05-79.27,48.34-22.6,107.6-22.6s111.08-51.94,107.03,22.6Z"/><ellipse class="cls-5" cx="81.55" cy="195.08" rx="16.35" ry="6.2" transform="translate(-128.51 170.94) rotate(-60.76)"/><path class="cls-1" d="m98.2,234.73c12.68,15.28,33.55,15.66,46.66.86"/><ellipse class="cls-5" cx="160.59" cy="194.83" rx="6.2" ry="16.35" transform="translate(-74.7 103.27) rotate(-29.24)"/><path class="cls-14" d="m42.93,114.79c-1,1.69-6.81,9.69-22.84-3.23C4.05,98.65-.88,79.38.12,77.69s7.55,14.85,23.59,27.76c16.04,12.92,20.22,7.65,19.22,9.34Z"/><path class="cls-9" d="m201.47,127.83c-17.56,13.04,23.9,31.62,6.24,27.22-17.66-4.4-45.8-3.02-23.14-37.78,2.03-3.12-9.56-33.48,20.97-31.69,62.72,3.66,20.98,23.66-4.07,42.26Z"/><path class="cls-4" d="m499.06,171.19c0,52.79-48.47,76.97-99.58,76.97s-97.41-28.09-97.41-80.88,47.39-121.65,98.5-121.65,98.5,72.77,98.5,125.56Z"/><path class="cls-4" d="m288.49,82.32c19.13,52.97-40.67,55.21-10.87,64.12,22.99,6.87,67.28-.09,74.18-32.34,6.9-32.25-.05-58.81-18.2-75.44-21.46-19.66-56.51,12.06-45.1,43.66Z"/><path class="cls-4" d="m506.12,78.81c-16.67,55.01,45.33,50.91,15.03,62.97-23.38,9.31-69.62,7.03-78.66-24.49-9.04-31.52-3.42-58.82,14.39-77.37,21.05-21.93,59.19,6.08,49.24,38.89Z"/><ellipse class="cls-13" cx="400.29" cy="172.78" rx="27.19" ry="19.09"/><ellipse class="cls-4" cx="391.41" cy="172.78" rx="3.88" ry="4.85"/><ellipse class="cls-4" cx="408.06" cy="172.78" rx="3.88" ry="4.85"/><path class="cls-9" d="m360.85,110.6c5.09,6.72,10.15,11.21,11.3,10.03s-2.05-7.59-7.14-14.31c-5.09-6.72-6.81-6.81-7.96-5.63s-1.29,3.19,3.8,9.91Z"/><ellipse class="cls-9" cx="371.14" cy="126.88" rx="14.43" ry="16.82"/><path class="cls-9" d="m438.03,110.6c-5.09,6.72-10.15,11.21-11.3,10.03s2.05-7.59,7.14-14.31c5.09-6.72,6.81-6.81,7.96-5.63s1.29,3.19-3.8,9.91Z"/><ellipse class="cls-9" cx="427.74" cy="126.88" rx="14.43" ry="16.82"/><path class="cls-2" d="m378.11,211.18c12.16,14.65,32.18,15.02,44.76.83"/><path class="cls-13" d="m467.69,136.58c14.11,12.89,33.69,4.92,28.3,12.94-5.39,8.02-14.19,23.89-28.3,11-14.11-12.89-22.59-54.1-17.2-62.12s3.09,25.29,17.2,38.18Z"/><path class="cls-9" d="m447.55,114.68c-5.99,7.91-11.78,13.36-12.92,12.18s2.78-8.55,8.76-16.46c5.99-7.91,7.85-8.18,9-7,1.15,1.18,1.15,3.37-4.84,11.28Z"/><path class="cls-13" d="m332.1,137.89c-14.11,12.89-33.69,4.92-28.3,12.94,5.39,8.02,14.19,23.89,28.3,11,14.11-12.89,22.59-54.1,17.2-62.12-5.39-8.02-3.09,25.29-17.2,38.18Z"/><path class="cls-9" d="m351.34,114.68c5.99,7.91,11.78,13.36,12.92,12.18s-2.78-8.55-8.76-16.46c-5.99-7.91-7.85-8.18-9-7-1.15,1.18-1.15,3.37,4.84,11.28Z"/><path class="cls-13" d="m306.77,70.58c-9.9-17.43-7.46-28.27-.42-34.3s-8.59,8.42,2.04,25.26"/><path class="cls-13" d="m482.83,68.69c9.9-17.43,7.46-28.27.42-34.3-7.03-6.04,8.59,8.42-2.04,25.26"/><path class="cls-8" d="m713.96,52.9c5.87,42.32,49.42-21.3,37.54,30.51-23.81,103.9-119.9,168.54-134.25,18.57-8.82-92.23,78.59-130.82,65.42-78.27-16.51,65.87,26.05-8.6,31.29,29.19Z"/><path class="cls-11" d="m738.33,140.67c-.21-41.03-37.44-74.29-83.62-74.29s-73.43,35.02-83.62,74.29c-27.68,106.72,29.25,128.15,108.32,97.82,38.46-14.75,59.33-16.72,58.92-97.82Z"/><path class="cls-12" d="m620.12,152.16c-5.47-12.91-8.53-8.2-21.72-12.82-15.2-5.32-30.39-13.5-34.13,6.63-9.75,52.47,6.38,33.17,24.59,22.13,14.22-8.63,39.11,2.57,31.27-15.95Z"/><path class="cls-12" d="m621.55,163.94c-1.94,10.08-9.09,17.29-17.2,20.42-7.87,3.04-15.88-3.02-21.31-14.2-4.14-8.52,7.94-8.51,18.57-10.22,10.63-1.72,21.77-5.54,19.94,4Z"/><path class="cls-9" d="m661.13,132.69c-5.52,4.29-10.51,6.89-11.13,5.8s3.35-5.46,8.87-9.75c5.52-4.29,6.89-4.08,7.51-2.99s.27,2.64-5.25,6.94Z"/><path class="cls-9" d="m655.04,127.7c-4.7,3.65-9.01,5.72-9.63,4.63-.62-1.09,2.68-4.93,7.37-8.58s5.93-3.33,6.55-2.24c.62,1.09.4,2.54-4.3,6.19Z"/><ellipse class="cls-9" cx="645.12" cy="136.98" rx="10.59" ry="12.34"/><path class="cls-9" d="m605.66,97.18c.32,7.73,1.49,13.95,2.61,13.89s1.77-6.38,1.45-14.12-1.28-8.88-2.4-8.82c-1.12.06-1.98,1.32-1.66,9.05Z"/><path class="cls-9" d="m612.72,99.93c.27,6.57,1.4,11.85,2.53,11.79s1.81-5.44,1.54-12.01-1.22-7.54-2.35-7.48-1.99,1.14-1.72,7.71Z"/><ellipse class="cls-9" cx="612.21" cy="114.76" rx="10.59" ry="12.34"/><path class="cls-6" d="m616.08,161.84c-.23,7.49-4.5,13.74-9.93,17.23-5.27,3.39-11.67.31-16.82-6.81-3.93-5.43,4.69-7.3,12.07-10.18,7.39-2.88,14.89-7.34,14.67-.25Z"/></svg>