<?xml version="1.0" encoding="UTF-8"?><svg id="Layer_1" xmlns="http://www.w3.org/2000/svg" viewBox="0 0 186.87 419.88"><defs><style>.cls-1{fill:#f6921e;}.cls-1,.cls-2,.cls-3,.cls-4{stroke-width:0px;}.cls-2{fill:#e98a00;}.cls-3{fill:#006837;}.cls-4{fill:#009145;}</style></defs><ellipse class="cls-4" cx="90.75" cy="109.88" rx="13.25" ry="109.88"/><path class="cls-4" d="m111.92,99.53c-36.56,21.11-34.1,103.01-29.4,111.16s19.03-50.04,46.44-81.64c31.39-36.19,60.82-49.36,57.67-52.98-6.21-7.11-38.16,2.35-74.71,23.45Z"/><path class="cls-4" d="m102.94,148.29C102.94,99.86,13.34,55.31,1.65,55.31s42,47.62,58.96,92.98c19.43,51.95,15.32,88.75,21.17,87.69,11.5-2.09,21.17-39.26,21.17-87.69Z"/><path class="cls-1" d="m139.96,210.08c0,40.8-26.35,209.79-53.5,209.79s-44.82-168.99-44.82-209.79,19.7-42.36,46.85-42.36,51.47,1.56,51.47,42.36Z"/><path class="cls-3" d="m112.59,98.4c-13.39,7.73-12.5,37.74-10.77,40.73,1.72,2.99,6.97-18.34,17.02-29.91,11.5-13.26,22.28-18.09,21.13-19.41-2.27-2.61-13.98.86-27.37,8.59Z"/><path class="cls-3" d="m84.57,115c0-13.48-31.97-37.88-37.6-37.88s15.54,19.78,23.71,32.4c9.35,14.46,7.38,24.71,10.19,24.41,5.54-.58,3.7-5.45,3.7-18.93Z"/><path class="cls-2" d="m139.63,214.76c-.27,39.52-25.6,179.45-35.29,177.58-7.78-1.5-11.08-146.97-7.55-184.46,3.53-37.5,9.38-38.39,17.27-37.65s25.83,6.87,25.57,44.53Z"/></svg>