<?xml version="1.0" encoding="UTF-8"?><svg id="Layer_1" xmlns="http://www.w3.org/2000/svg" viewBox="0 0 284.22 289.66"><defs><style>.cls-1{fill:#8b6239;}.cls-1,.cls-2,.cls-3,.cls-4{stroke-width:0px;}.cls-2{fill:#8bc53f;}.cls-3{fill:#006837;}.cls-4{fill:#009145;}</style></defs><path class="cls-4" d="m148.44,54.62c-4.09,9.48-35.84,7.34-53.57-.32C77.14,46.65,49.83,13.1,53.92,3.63c4.09-9.48,33.32,1.75,51.05,9.41,17.73,7.66,47.56,32.11,43.47,41.59Z"/><path class="cls-2" d="m284.19,152.69c1.73,78.57-79.54,139.16-154.58,136.09C58.2,285.85,3.76,228.82.21,155.05-4.23,62.82,63.02,56.47,130.01,84.25c40.43,16.77,150.91-80.31,154.18,68.44Z"/><ellipse class="cls-1" cx="136.03" cy="280.51" rx="2.75" ry="15.73" transform="translate(-155.38 391.27) rotate(-84.94)"/><ellipse class="cls-1" cx="136.57" cy="278.55" rx="2.75" ry="15.73" transform="translate(-171.32 240.5) rotate(-56.84)"/><ellipse class="cls-1" cx="136.68" cy="277.56" rx="15.73" ry="2.75" transform="translate(-150.99 163.7) rotate(-42.19)"/><ellipse class="cls-1" cx="137.18" cy="278.14" rx="11.66" ry="2.04" transform="translate(-159.06 369.92) rotate(-80.96)"/><path class="cls-3" d="m147.93,55.19c-4.09,9.48-35.84,7.34-53.57-.32-17.73-7.66-48.29-48.66-38.54-45.26,9.77,3.4,42.5,39.31,56.82,39.24,19.31-.1,39.38-3.13,35.28,6.35Z"/><path class="cls-1" d="m153.29,71.78c-2.79,25.4-10.42,18.84-14.75,17.41s-6.26,2.58-.95-22.58c6.84-32.42,41.43-59.69,44.74-49.77,3.86,11.58-26.66,33.32-29.03,54.94Z"/></svg>