<?xml version="1.0" encoding="UTF-8"?><svg id="Layer_1" xmlns="http://www.w3.org/2000/svg" viewBox="0 0 426.05 186.52"><defs><style>.cls-1{fill:none;stroke:#006837;stroke-width:12px;}.cls-1,.cls-2{stroke-miterlimit:10;}.cls-2{fill:#ff94af;stroke:#39b44a;stroke-width:11px;}.cls-3{stroke-width:0px;}</style></defs><path class="cls-2" d="m21.08.22c-.94,23.45,60.31,129.16,106.73,149.19,100.3,43.28,139.41,7.22,165.25-4.34,40.33-18.05,93.38-119.07,114.43-139.19"/><path class="cls-1" d="m5.21,3.85c1.97,3.45,19.83,80.65,94.13,142.35,4.73,3.92,49.37,51.81,161.63,27.43,79.46-17.26,119.96-109.73,160.26-163.88"/><path class="cls-3" d="m128.72,39.33c-.89-.82-6.23,3.41-8.27,5.61s-2.96,4.65-2.07,5.47,3.26-.3,5.29-2.5,5.94-7.76,5.05-8.58Z"/><path class="cls-3" d="m71.32,53.1c-.89-.82-6.23,3.41-8.27,5.61-2.03,2.2-2.96,4.65-2.07,5.47.89.82,3.26-.3,5.29-2.5,2.03-2.2,5.94-7.76,5.05-8.58Z"/><path class="cls-3" d="m79.59,14.07c-.89-.82-6.23,3.41-8.27,5.61s-2.96,4.65-2.07,5.47,3.26-.3,5.29-2.5,5.94-7.76,5.05-8.58Z"/><path class="cls-3" d="m172.77,131.13c-1.17-.31-3.94,5.92-4.71,8.81-.78,2.89-.46,5.49.71,5.81s2.75-1.78,3.52-4.67c.78-2.89,1.65-9.63.48-9.95Z"/><path class="cls-3" d="m118.07,96.17c-.89-.82-6.23,3.41-8.27,5.61s-2.96,4.65-2.07,5.47c.89.82,3.26-.3,5.29-2.5s5.94-7.76,5.05-8.58Z"/><path class="cls-3" d="m175.45,64.3c-1.17-.31-3.94,5.92-4.71,8.81-.78,2.89-.46,5.49.71,5.81s2.75-1.78,3.52-4.67c.78-2.89,1.65-9.63.48-9.95Z"/><path class="cls-3" d="m341.41,38.85c-1.12.46.48,7.09,1.62,9.86s2.98,4.64,4.09,4.18,1.1-3.08-.04-5.85-4.55-8.65-5.67-8.19Z"/><path class="cls-3" d="m272.37,43.47c-1.12.46.48,7.09,1.62,9.86s2.98,4.64,4.09,4.18,1.1-3.08-.04-5.85c-1.14-2.77-4.55-8.65-5.67-8.19Z"/><path class="cls-3" d="m288.9,104.54c-1.12.46.48,7.09,1.62,9.86s2.98,4.64,4.09,4.18,1.1-3.08-.04-5.85-4.55-8.65-5.67-8.19Z"/><path class="cls-3" d="m237.51,126.17c-1.19.24-.9,7.05-.31,9.99s2.02,5.12,3.21,4.89,1.67-2.81,1.09-5.75-2.8-9.36-3.98-9.13Z"/><path class="cls-3" d="m237.72,74.27c-1.19.24-.9,7.05-.31,9.99s2.02,5.12,3.21,4.89,1.67-2.81,1.09-5.75c-.59-2.94-2.8-9.36-3.98-9.13Z"/><path class="cls-3" d="m208.65,27.8c-1.21-.11-2.85,6.51-3.11,9.49-.26,2.98.5,5.49,1.7,5.59s2.4-2.22,2.66-5.21c.26-2.98-.05-9.77-1.25-9.88Z"/></svg>